<?xml version="1.0" standalone="yes"?>
<svg xmlns="http://www.w3.org/2000/svg" width="186" height="124">
<path style="fill:#ffffff; stroke:none;" d="M0 0L0 124L186 124L186 0L0 0z"/>
<path style="fill:#eea09e; stroke:none;" d="M63 18L63 19L69 19L63 18z"/>
<path style="fill:#f07170; stroke:none;" d="M69 18L69 19L76 19L69 18z"/>
<path style="fill:#f34d4d; stroke:none;" d="M76 18L76 19L108 19L76 18z"/>
<path style="fill:#f07170; stroke:none;" d="M108 18L108 19L116 19L108 18z"/>
<path style="fill:#eea09e; stroke:none;" d="M116 18L116 19L123 19L116 18M50 19L50 20L53 20L50 19z"/>
<path style="fill:#f07170; stroke:none;" d="M53.6667 19.3333L54.3333 19.6667L53.6667 19.3333z"/>
<path style="fill:#f34d4d; stroke:none;" d="M55.6667 19.3333L56.3333 19.6667L55.6667 19.3333z"/>
<path style="fill:#ff0101; stroke:none;" d="M57 19.4244C49.6281 20.4042 40.9228 20.0014 35.8032 26.3009C30.9909 32.2224 31.085 41.7675 30.9961 49C30.8524 60.7002 29.749 72.2784 31.4282 84C32.2691 89.8694 33.2034 96.43 38.1852 100.347C45.0313 105.73 58.7229 105 67 105C90.5804 105 115.724 107.47 139 103.407C160.608 99.6344 156.81 59.4191 154.575 43C153.739 36.8571 153.43 29.8575 148.786 25.2137C142.813 19.2403 130.96 19.0392 123 19.0008C101.513 18.8971 78.2942 16.5942 57 19.4244z"/>
<path style="fill:#f34d4d; stroke:none;" d="M130.667 19.3333L131.333 19.6667L130.667 19.3333z"/>
<path style="fill:#f07170; stroke:none;" d="M132.667 19.3333L133.333 19.6667L132.667 19.3333z"/>
<path style="fill:#eea09e; stroke:none;" d="M134 19L134 20L137 20L134 19M44.6667 20.3333L45.3333 20.6667L44.6667 20.3333z"/>
<path style="fill:#f34d4d; stroke:none;" d="M46 20L46 21L49 21L46 20M138.667 20.3333L139.333 20.6667L138.667 20.3333z"/>
<path style="fill:#f07170; stroke:none;" d="M140 20L141 21L140 20z"/>
<path style="fill:#eea09e; stroke:none;" d="M141 20L142 21L141 20M41 21L42 22L41 21z"/>
<path style="fill:#f34d4d; stroke:none;" d="M143 21L144 22L143 21z"/>
<path style="fill:#eea09e; stroke:none;" d="M144 21L145 22L144 21M39 22L40 23L39 22z"/>
<path style="fill:#f34d4d; stroke:none;" d="M145 22L146 23L145 22z"/>
<path style="fill:#eea09e; stroke:none;" d="M146 22L147 23L146 22z"/>
<path style="fill:#f34d4d; stroke:none;" d="M38 23L39 24L38 23z"/>
<path style="fill:#f07170; stroke:none;" d="M147 23L148 24L147 23z"/>
<path style="fill:#f34d4d; stroke:none;" d="M37 24L38 25L37 24z"/>
<path style="fill:#f07170; stroke:none;" d="M148 24L149 25L148 24M149 25L150 26L149 25z"/>
<path style="fill:#f34d4d; stroke:none;" d="M35 26L36 27L35 26z"/>
<path style="fill:#eea09e; stroke:none;" d="M150 26L151 27L150 26z"/>
<path style="fill:#f07170; stroke:none;" d="M34 27L35 28L34 27z"/>
<path style="fill:#eea09e; stroke:none;" d="M151 27L152 28L151 27z"/>
<path style="fill:#f07170; stroke:none;" d="M151 28L152 29L151 28M33 29L34 30L33 29z"/>
<path style="fill:#eea09e; stroke:none;" d="M152 29L153 30L152 29z"/>
<path style="fill:#f07170; stroke:none;" d="M152 30L153 31L152 30z"/>
<path style="fill:#eea09e; stroke:none;" d="M32 31L33 32L32 31z"/>
<path style="fill:#f07170; stroke:none;" d="M32 32L33 33L32 32z"/>
<path style="fill:#eea09e; stroke:none;" d="M153.333 32.6667L153.667 33.3333L153.333 32.6667z"/>
<path style="fill:#f34d4d; stroke:none;" d="M32 33L33 34L32 33z"/>
<path style="fill:#f07170; stroke:none;" d="M153 34L154 35L153 34z"/>
<path style="fill:#eea09e; stroke:none;" d="M31.3333 35.6667L31.6667 36.3333L31.3333 35.6667z"/>
<path style="fill:#f34d4d; stroke:none;" d="M153 35L154 36L153 35z"/>
<path style="fill:#f07170; stroke:none;" d="M31 37L32 38L31 37z"/>
<path style="fill:#f34d4d; stroke:none;" d="M31.3333 38.6667L31.6667 39.3333L31.3333 38.6667z"/>
<path style="fill:#eea09e; stroke:none;" d="M154.333 38.6667L154.667 39.3333L154.333 38.6667z"/>
<path style="fill:#f07170; stroke:none;" d="M154 40L155 41L154 40z"/>
<path style="fill:#f34d4d; stroke:none;" d="M154.333 41.6667L154.667 42.3333L154.333 41.6667z"/>
<path style="fill:#eea09e; stroke:none;" d="M30 43L30 47L31 47L30 43z"/>
<path style="fill:#f07170; stroke:none;" d="M80 43L80 70L82 81C79.4136 70.1364 79.4136 53.8636 82 43L80 43z"/>
<path style="fill:#ffffff; stroke:none;" d="M81 44L81 80L112 63L112 61L81 44z"/>
<path style="fill:#f07170; stroke:none;" d="M83 44L84 45L83 44z"/>
<path style="fill:#eea09e; stroke:none;" d="M84 45L85 46L84 45z"/>
<path style="fill:#f34d4d; stroke:none;" d="M85 45L86 46L85 45z"/>
<path style="fill:#eea09e; stroke:none;" d="M155 45L155 51L156 51L155 45M86 46L87 47L86 46z"/>
<path style="fill:#f07170; stroke:none;" d="M30 47L30 50L31 50L30 47M88 47L89 48L88 47z"/>
<path style="fill:#f34d4d; stroke:none;" d="M90 48L91 49L90 48z"/>
<path style="fill:#eea09e; stroke:none;" d="M91 49L92 50L91 49z"/>
<path style="fill:#f34d4d; stroke:none;" d="M30 50L30 56L31 56L30 50z"/>
<path style="fill:#eea09e; stroke:none;" d="M93 50L94 51L93 50z"/>
<path style="fill:#f07170; stroke:none;" d="M95 51L96 52L95 51M155 51L155 56L156 56L155 51z"/>
<path style="fill:#eea09e; stroke:none;" d="M96 52L97 53L96 52z"/>
<path style="fill:#f34d4d; stroke:none;" d="M97 52L98 53L97 52z"/>
<path style="fill:#eea09e; stroke:none;" d="M98 53L99 54L98 53z"/>
<path style="fill:#f34d4d; stroke:none;" d="M99 53L100 54L99 53z"/>
<path style="fill:#f07170; stroke:none;" d="M100 54L101 55L100 54M102 55L103 56L102 55z"/>
<path style="fill:#eea09e; stroke:none;" d="M103 56L104 57L103 56z"/>
<path style="fill:#f34d4d; stroke:none;" d="M104 56L105 57L104 56M155 56L155 67L156 67L155 56z"/>
<path style="fill:#eea09e; stroke:none;" d="M105 57L106 58L105 57z"/>
<path style="fill:#f34d4d; stroke:none;" d="M106 57L107 58L106 57z"/>
<path style="fill:#f07170; stroke:none;" d="M107 58L108 59L107 58M109 59L110 60L109 59z"/>
<path style="fill:#eea09e; stroke:none;" d="M110 60L111 61L110 60z"/>
<path style="fill:#f34d4d; stroke:none;" d="M111 60L112 61L111 60z"/>
<path style="fill:#eea09e; stroke:none;" d="M112.333 61.6667L112.667 62.3333L112.333 61.6667z"/>
<path style="fill:#f34d4d; stroke:none;" d="M113 61L114 62L113 61M111 63L112 64L111 63z"/>
<path style="fill:#f07170; stroke:none;" d="M109 64L110 65L109 64z"/>
<path style="fill:#eea09e; stroke:none;" d="M107 65L108 66L107 65M105 66L106 67L105 66z"/>
<path style="fill:#f34d4d; stroke:none;" d="M106 66L107 67L106 66M104 67L105 68L104 67z"/>
<path style="fill:#f07170; stroke:none;" d="M155 67L155 72L156 72L155 67z"/>
<path style="fill:#f34d4d; stroke:none;" d="M30 68L30 74L31 74L30 68z"/>
<path style="fill:#f07170; stroke:none;" d="M102 68L103 69L102 68z"/>
<path style="fill:#eea09e; stroke:none;" d="M100 69L101 70L100 69M98 70L99 71L98 70z"/>
<path style="fill:#f34d4d; stroke:none;" d="M99 70L100 71L99 70M97 71L98 72L97 71z"/>
<path style="fill:#eea09e; stroke:none;" d="M95 72L96 73L95 72M155 72L155 78L156 78L155 72M93 73L94 74L93 73z"/>
<path style="fill:#f07170; stroke:none;" d="M30 74L30 77L31 77L30 74z"/>
<path style="fill:#eea09e; stroke:none;" d="M91 74L92 75L91 74z"/>
<path style="fill:#f34d4d; stroke:none;" d="M92 74L93 75L92 74z"/>
<path style="fill:#f07170; stroke:none;" d="M90 75L91 76L90 75M88 76L89 77L88 76z"/>
<path style="fill:#eea09e; stroke:none;" d="M30 77L30 82L31 82L30 77M86 77L87 78L86 77z"/>
<path style="fill:#f34d4d; stroke:none;" d="M87 77L88 78L87 77z"/>
<path style="fill:#eea09e; stroke:none;" d="M84 78L85 79L84 78z"/>
<path style="fill:#f34d4d; stroke:none;" d="M85 78L86 79L85 78z"/>
<path style="fill:#f07170; stroke:none;" d="M83 79L84 80L83 79z"/>
<path style="fill:#f34d4d; stroke:none;" d="M154.333 81.6667L154.667 82.3333L154.333 81.6667z"/>
<path style="fill:#f07170; stroke:none;" d="M154 83L155 84L154 83z"/>
<path style="fill:#f34d4d; stroke:none;" d="M31.3333 84.6667L31.6667 85.3333L31.3333 84.6667z"/>
<path style="fill:#eea09e; stroke:none;" d="M154.333 84.6667L154.667 85.3333L154.333 84.6667z"/>
<path style="fill:#f07170; stroke:none;" d="M31 86L32 87L31 86z"/>
<path style="fill:#eea09e; stroke:none;" d="M31.3333 87.6667L31.6667 88.3333L31.3333 87.6667z"/>
<path style="fill:#f34d4d; stroke:none;" d="M153 88L154 89L153 88z"/>
<path style="fill:#f07170; stroke:none;" d="M153 89L154 90L153 89z"/>
<path style="fill:#f34d4d; stroke:none;" d="M32 90L33 91L32 90z"/>
<path style="fill:#eea09e; stroke:none;" d="M153.333 90.6667L153.667 91.3333L153.333 90.6667z"/>
<path style="fill:#f07170; stroke:none;" d="M32 91L33 92L32 91z"/>
<path style="fill:#eea09e; stroke:none;" d="M32 92L33 93L32 92z"/>
<path style="fill:#f34d4d; stroke:none;" d="M152 93L153 94L152 93z"/>
<path style="fill:#f07170; stroke:none;" d="M33 94L34 95L33 94z"/>
<path style="fill:#eea09e; stroke:none;" d="M152 94L153 95L152 94z"/>
<path style="fill:#f34d4d; stroke:none;" d="M151 95L152 96L151 95z"/>
<path style="fill:#f07170; stroke:none;" d="M34 96L35 97L34 96z"/>
<path style="fill:#eea09e; stroke:none;" d="M151 96L152 97L151 96z"/>
<path style="fill:#f34d4d; stroke:none;" d="M35 97L36 98L35 97z"/>
<path style="fill:#f07170; stroke:none;" d="M150 97L151 98L150 97z"/>
<path style="fill:#eea09e; stroke:none;" d="M35 98L36 99L35 98z"/>
<path style="fill:#f34d4d; stroke:none;" d="M149 98L150 99L149 98M148 99L149 100L148 99M147 100L148 101L147 100z"/>
<path style="fill:#f07170; stroke:none;" d="M39 101L40 102L39 101z"/>
<path style="fill:#f34d4d; stroke:none;" d="M145 101L146 102L145 101z"/>
<path style="fill:#eea09e; stroke:none;" d="M146 101L147 102L146 101z"/>
<path style="fill:#f07170; stroke:none;" d="M41 102L42 103L41 102z"/>
<path style="fill:#eea09e; stroke:none;" d="M144 102L145 103L144 102M43 103L44 104L43 103z"/>
<path style="fill:#f07170; stroke:none;" d="M44.6667 103.333L45.3333 103.667L44.6667 103.333z"/>
<path style="fill:#f34d4d; stroke:none;" d="M46.6667 103.333L47.3333 103.667L46.6667 103.333M138.667 103.333L139.333 103.667L138.667 103.333z"/>
<path style="fill:#f07170; stroke:none;" d="M140 103L141 104L140 103z"/>
<path style="fill:#eea09e; stroke:none;" d="M141 103L142 104L141 103M49 104L49 105L52 105L49 104z"/>
<path style="fill:#f07170; stroke:none;" d="M52 104L53 105L52 104z"/>
<path style="fill:#f34d4d; stroke:none;" d="M53 104L53 105L56 105L53 104M131.667 104.333L132.333 104.667L131.667 104.333z"/>
<path style="fill:#f07170; stroke:none;" d="M133 104L134 105L133 104z"/>
<path style="fill:#eea09e; stroke:none;" d="M134 104L134 105L137 105L134 104M62 105L62 106L68 106L62 105z"/>
<path style="fill:#f07170; stroke:none;" d="M68 105L68 106L74 106L68 105z"/>
<path style="fill:#f34d4d; stroke:none;" d="M74 105L75 106L74 105z"/>
<path style="fill:#f07170; stroke:none;" d="M75 105L76 106L75 105z"/>
<path style="fill:#f34d4d; stroke:none;" d="M76 105L76 106L113 106C103.202 101.889 86.6488 105 76 105z"/>
<path style="fill:#f07170; stroke:none;" d="M113 105L113 106L120 106L113 105z"/>
<path style="fill:#eea09e; stroke:none;" d="M120 105L120 106L126 106L120 105z"/>
</svg>
